<svg xmlns="http://www.w3.org/2000/svg" width="600" height="200" fill="none"><rect width="598" height="198" x="1" y="1" fill="#1B1B1B" stroke="url(#a)" stroke-width="2" rx="19"/><path fill="#8CAD5C" d="m488 150.297 7-7.297 7 7.297-1.633 1.703-5.367-5.595-5.367 5.595z" opacity=".87"/><path fill="#5CAD84" d="m441 193.297 7-7.297 7 7.297-1.633 1.703-5.367-5.595-5.367 5.595z" opacity=".49"/><path fill="#5C92AD" d="m234 119.297 7-7.297 7 7.297-1.633 1.703-5.367-5.595-5.367 5.595z" opacity=".43"/><path fill="#A15CAD" d="M401 63.297 408 56l7 7.297L413.367 65 408 59.405 402.633 65z" opacity=".48"/><path fill="#AD6A5C" d="M226 79.297 233 72l7 7.297L238.367 81 233 75.405 227.633 81z" opacity=".43"/><path fill="#5C75AD" d="m584 118.297 7-7.297 7 7.297-1.633 1.703-5.367-5.595-5.367 5.595z" opacity=".41"/><path fill="#915CAD" d="M380 21.297 387 14l7 7.297L392.367 23 387 17.405 381.633 23z" opacity=".93"/><path fill="#775CAD" d="m498 151.297 7-7.297 7 7.297-1.633 1.703-5.367-5.595-5.367 5.595z" opacity=".47"/><path fill="#AD5E5C" d="M151 96.297 158 89l7 7.297L163.367 98 158 92.405 152.633 98z" opacity=".21"/><path fill="#AD5C69" d="m276 154.297 7-7.297 7 7.297-1.633 1.703-5.367-5.595-5.367 5.595z" opacity=".38"/><path fill="#5C79AD" d="M11 63.297 18 56l7 7.297L23.367 65 18 59.405 12.633 65z" opacity=".53"/><path fill="#6A5CAD" d="m363 141.297 7-7.297 7 7.297-1.633 1.703-5.367-5.595-5.367 5.595z" opacity=".21"/><path fill="#6D5CAD" d="M534 90.297 541 83l7 7.297L546.367 92 541 86.405 535.633 92z" opacity=".93"/><path fill="#ADAB5C" d="m255 113.297 7-7.297 7 7.297-1.633 1.703-5.367-5.595-5.367 5.595z" opacity=".32"/><path fill="#765CAD" d="m269 114.297 7-7.297 7 7.297-1.633 1.703-5.367-5.595-5.367 5.595z" opacity=".04"/><path fill="#5C69AD" d="M339 32.297 346 25l7 7.297L351.367 34 346 28.405 340.633 34z" opacity=".75"/><path fill="#5C8EAD" d="M508 104.297 515 97l7 7.297-1.633 1.703-5.367-5.595-5.367 5.595z" opacity=".62"/><path fill="#605CAD" d="M37 38.297 44 31l7 7.297L49.367 40 44 34.405 38.633 40z" opacity=".62"/><path fill="#5C7FAD" d="m273 108.297 7-7.297 7 7.297-1.633 1.703-5.367-5.595-5.367 5.595z" opacity=".08"/><path fill="#5CAD68" d="M110 76.297 117 69l7 7.297L122.367 78 117 72.405 111.633 78z" opacity=".73"/><path fill="#AC5CAD" d="M484 40.297 491 33l7 7.297L496.367 42 491 36.405 485.633 42z" opacity=".56"/><path fill="#5C7AAD" d="M454 105.297 461 98l7 7.297-1.633 1.703-5.367-5.595-5.367 5.595z" opacity=".95"/><path fill="#5C84AD" d="m292 112.297 7-7.297 7 7.297-1.633 1.703-5.367-5.595-5.367 5.595z" opacity=".07"/><path fill="#5CAD89" d="M40 43.297 47 36l7 7.297L52.367 45 47 39.405 41.633 45z" opacity=".25"/><path fill="#5CAD78" d="m460 115.297 7-7.297 7 7.297-1.633 1.703-5.367-5.595-5.367 5.595z" opacity=".37"/><path fill="#ADAD5C" d="M106 51.297 113 44l7 7.297L118.367 53 113 47.405 107.633 53z" opacity=".97"/><path fill="#805CAD" d="M167 93.297 174 86l7 7.297L179.367 95 174 89.405 168.633 95z" opacity=".16"/><path fill="#AD5C8D" d="M497 19.297 504 12l7 7.297L509.367 21 504 15.405 498.633 21z" opacity=".1"/><path fill="#AD5CA7" d="M266 79.297 273 72l7 7.297L278.367 81 273 75.405 267.633 81z" opacity=".48"/><path fill="#AD5C76" d="M214 71.297 221 64l7 7.297L226.367 73 221 67.405 215.633 73z" opacity=".69"/><path fill="#AD605C" d="M349 67.297 356 60l7 7.297L361.367 69 356 63.405 350.633 69z" opacity=".14"/><path fill="#7AAD5C" d="m426 137.297 7-7.297 7 7.297-1.633 1.703-5.367-5.595-5.367 5.595z" opacity=".27"/><path fill="#5CACAD" d="m110 185.297 7-7.297 7 7.297-1.633 1.703-5.367-5.595-5.367 5.595z" opacity=".66"/><path fill="#8C5CAD" d="M51 54.297 58 47l7 7.297L63.367 56 58 50.405 52.633 56z" opacity=".3"/><path fill="#AD5C9E" d="M274 86.297 281 79l7 7.297L286.367 88 281 82.405 275.633 88z" opacity=".01"/><path fill="#5C8BAD" d="M226 65.297 233 58l7 7.297L238.367 67 233 61.405 227.633 67z" opacity=".48"/><path fill="#5C77AD" d="m578 136.297 7-7.297 7 7.297-1.633 1.703-5.367-5.595-5.367 5.595z" opacity=".19"/><path fill="#AD5C8C" d="M264 92.297 271 85l7 7.297L276.367 94 271 88.405 265.633 94z" opacity=".5"/><path fill="#5C75AD" d="m268 109.297 7-7.297 7 7.297-1.633 1.703-5.367-5.595-5.367 5.595z" opacity=".6"/><path fill="#AD665C" d="m498 142.297 7-7.297 7 7.297-1.633 1.703-5.367-5.595-5.367 5.595z" opacity=".08"/><path fill="#AD6E5C" d="M33 150.297 40 143l7 7.297L45.367 152 40 146.405 34.633 152z" opacity=".6"/><path fill="#AD5CA1" d="M488 65.297 495 58l7 7.297L500.367 67 495 61.405 489.633 67z" opacity=".65"/><path fill="#5CAD77" d="M189 76.297 196 69l7 7.297L201.367 78 196 72.405 190.633 78z" opacity=".24"/><path fill="#6A5CAD" d="M321 10.297 328 3l7 7.297L333.367 12 328 6.405 322.633 12z" opacity=".47"/><path fill="#AD5D5C" d="M61 89.297 68 82l7 7.297L73.367 91 68 85.405 62.633 91z" opacity=".5"/><path fill="#E7EDFD" d="M184.272 147.28q-12.16 0-19.456-7.168-7.296-7.296-7.296-19.712V45.6h11.52v74.8q0 7.68 4.096 12.288 4.097 4.48 11.136 4.48 7.168 0 11.264-4.48 4.224-4.608 4.224-12.288V75.6h11.52v44.8q0 12.416-7.424 19.712-7.423 7.168-19.584 7.168m50.254 21.76V75.6h11.52v13.44h.128q.896-6.912 6.016-10.752 5.12-3.968 13.056-3.968 10.625 0 16.896 7.04 6.272 6.912 6.272 19.072v20.608q0 12.16-6.272 19.2t-16.896 7.04q-7.936 0-13.056-3.968t-6.016-10.752h-.384l.256 16v20.48zm26.88-31.744q7.296 0 11.392-3.84t4.096-12.416v-20.48q0-8.704-4.096-12.416-4.096-3.84-11.392-3.84-7.04 0-11.264 4.48-4.096 4.48-4.096 12.416v19.2q0 7.936 4.096 12.416 4.224 4.48 11.264 4.48m58.702 31.744v-10.496h19.84q6.016 0 9.472-3.456 3.456-3.328 3.456-9.088v-6.4l.256-11.52h-.384q-1.024 6.272-6.016 9.728-4.992 3.328-12.544 3.328-10.88 0-17.152-6.912t-6.272-18.944v-14.848q0-12.032 6.272-19.072t17.152-7.04q7.552 0 12.544 3.584t6.016 9.856h.256V75.6h11.392V146q0 10.624-6.656 16.768-6.528 6.272-17.92 6.272zm17.536-37.504q7.168 0 11.264-4.48t4.096-12.416V101.2q0-7.936-4.096-12.416t-11.264-4.48q-7.296 0-11.392 4.224-3.968 4.224-3.968 11.392v16q0 7.168 3.968 11.392 4.096 4.224 11.392 4.224m70.862 15.744q-10.88 0-17.28-6.016-6.4-6.144-6.4-16 0-6.528 2.944-11.392t8.192-7.552q5.248-2.816 12.032-2.816h21.76V98q0-13.695-14.976-13.696-6.656 0-10.752 2.432t-4.352 6.784h-11.52q.64-8.32 7.68-13.696 7.168-5.505 18.944-5.504 12.8 0 19.584 6.144 6.912 6.144 6.912 17.152V146h-11.392v-12.8h-.256q-1.024 6.528-6.528 10.368-5.504 3.712-14.592 3.712m2.816-9.728q8.448 0 13.44-4.096 4.992-4.097 4.992-11.136v-9.856h-20.48q-5.633 0-9.216 3.456-3.456 3.328-3.456 8.96 0 5.888 3.84 9.344 3.968 3.328 10.88 3.328"/><path fill="#E7EDFD" d="M165.828 37.172a4 4 0 0 0-5.656 0l-25.456 25.455a4 4 0 0 0 5.657 5.657L163 45.657l22.627 22.627a4 4 0 0 0 5.657-5.657zM167 41v-1h-8v1z"/><path fill="#fff" fill-opacity=".15" d="M249.88 181.2v5.696q0 2 1.904 2 1.936 0 1.936-2V181.2h1.44v5.696q0 1.568-.88 2.416-.864.848-2.496.848-1.6 0-2.48-.848-.864-.864-.864-2.416V181.2zm8.122 0h1.36v1.52h.128q.207-.8.848-1.232.64-.448 1.616-.448.672 0 1.216.24t.928.688q.384.432.592 1.072.224.64.224 1.44v2.24q0 .8-.224 1.44a3.2 3.2 0 0 1-.592 1.088 2.7 2.7 0 0 1-.928.672q-.544.24-1.216.24-.977 0-1.616-.432a2.12 2.12 0 0 1-.848-1.248h-.128q.015.272.048.544.015.24.016.496.016.256.016.48v2.72h-1.44zm1.44 3.28v2.24q0 1.008.528 1.6.543.592 1.44.592.96 0 1.504-.592.56-.592.56-1.6v-2.24q0-1.04-.544-1.616-.545-.576-1.52-.576-.897 0-1.44.592-.528.592-.528 1.6m7.914-.08q0-.768.208-1.392a3 3 0 0 1 .592-1.056q.399-.432.96-.672t1.248-.24q.96 0 1.632.464.672.448.912 1.296h.112v-1.6h1.36v8.24q0 1.552-.912 2.416t-2.56.864h-2.16v-1.312h2.16q.96 0 1.488-.512.543-.512.544-1.456v-.4l.064-1.52h-.096q-.24.848-.912 1.312-.672.448-1.632.448-.689 0-1.248-.24a2.8 2.8 0 0 1-.944-.672 3.2 3.2 0 0 1-.608-1.056 4.4 4.4 0 0 1-.208-1.392zm1.472 1.52q0 .992.544 1.552.56.56 1.519.56.961 0 1.505-.56t.544-1.552v-1.52q0-.992-.544-1.552t-1.505-.56q-.959 0-1.519.56-.544.56-.544 1.552zm10.105-4.72v1.52h.128q.209-.784.864-1.232.656-.448 1.616-.448 1.392 0 2.176.88.8.864.8 2.384v.496h-1.44v-.32q0-1.04-.528-1.6-.512-.576-1.472-.576-.943 0-1.504.592-.56.576-.56 1.584V190h-1.44v-8.8zm7.45 6.24q0-.624.208-1.12a2.4 2.4 0 0 1 .624-.864q.416-.352.992-.544a4.1 4.1 0 0 1 1.296-.192h2.624V184q0-.816-.544-1.264-.528-.464-1.536-.464-.736 0-1.264.272-.512.272-.688.752h-1.44q.224-1.04 1.136-1.648.928-.608 2.288-.608 1.632 0 2.56.768.928.752.928 2.112V190h-1.312v-1.68h-.128q-.208.848-.976 1.344t-1.872.496q-1.327 0-2.112-.736-.784-.736-.784-1.984m1.44-.032q0 .737.464 1.152.464.416 1.312.416.545 0 1.008-.144.464-.144.8-.4.336-.272.528-.624a1.6 1.6 0 0 0 .192-.768v-1.2h-2.592q-.8 0-1.264.416-.448.415-.448 1.152m8.426-2.928q0-.8.208-1.44.224-.64.608-1.072a2.6 2.6 0 0 1 .928-.688q.543-.24 1.216-.24.975 0 1.616.448.64.432.848 1.232h.128l-.032-.544a6 6 0 0 1-.048-.496v-3.2h1.44V190h-1.36v-1.52h-.128a2.13 2.13 0 0 1-.848 1.248q-.64.432-1.616.432-.672 0-1.216-.24a2.7 2.7 0 0 1-.928-.672 3.4 3.4 0 0 1-.608-1.088 4.6 4.6 0 0 1-.208-1.44zm1.44 0v2.24q0 1.008.544 1.6.56.592 1.52.592.896 0 1.424-.592.543-.592.544-1.6v-2.24q0-1.008-.544-1.6-.528-.592-1.424-.592-.977 0-1.52.576-.544.576-.544 1.616m8.154-.08q0-1.568.928-2.464.944-.896 2.592-.896 1.647 0 2.576.896.944.896.944 2.464v1.616h-5.6v.704q0 1.008.544 1.584.56.576 1.536.576.72 0 1.248-.224t.784-.656h1.44q-.273 1.008-1.216 1.584-.928.576-2.256.576-1.649 0-2.592-.896-.928-.896-.928-2.464zm1.44.416h4.16v-.416q0-.992-.544-1.536t-1.536-.544-1.536.544-.544 1.536zm17.475 2.624q0-.624.208-1.12a2.4 2.4 0 0 1 .624-.864q.416-.352.992-.544a4.1 4.1 0 0 1 1.296-.192h2.624V184q0-.816-.544-1.264-.528-.464-1.536-.464-.736 0-1.264.272-.512.272-.688.752h-1.44q.224-1.04 1.136-1.648.928-.608 2.288-.608 1.632 0 2.56.768.928.752.928 2.112V190h-1.312v-1.68h-.128q-.208.848-.976 1.344t-1.872.496q-1.327 0-2.112-.736-.784-.736-.784-1.984m1.44-.032q0 .737.464 1.152.464.416 1.312.416.545 0 1.008-.144.464-.144.8-.4.336-.272.528-.624a1.6 1.6 0 0 0 .192-.768v-1.2h-2.592q-.8 0-1.264.416-.448.415-.448 1.152m7.786-7.776v-1.312h4.352v9.12q0 .592.32.928.32.32.88.32h2.608V190h-2.608q-1.233 0-1.936-.672-.704-.688-.704-1.888v-7.808zm9.594 0v-1.312h4.352v9.12q0 .592.32.928.32.32.88.32h2.608V190h-2.608q-1.233 0-1.936-.672-.704-.688-.704-1.888v-7.808z"/><defs><linearGradient id="a" x1="0" x2="600" y1="0" y2="200" gradientUnits="userSpaceOnUse"><stop stop-color="#5DFDBD"/><stop offset=".105" stop-color="#48CDFD"/><stop offset=".2" stop-color="#8B92FA"/><stop offset=".4" stop-color="#E77FF3"/><stop offset=".6" stop-color="#F68EC7"/><stop offset=".8" stop-color="#F2926E"/><stop offset="1" stop-color="#ED9344"/></linearGradient></defs></svg>